# xmcd CD database file
#
# Track frame offsets:
#	150
#	18268
#	32331
#	44790
#	67032
#	81834
#	98089
#	125895
#	142542
#	154300
#	171210
#	189842
#	208268
#	223538
#	249054
#
# Disc length: 3539 seconds
#
# Revision: 0
# Processed by: cddbd v1.5.2PL0 Copyright (c) Steve Scherf et al.
# Submitted via: CDex 1.70beta2
#
DISCID=ca0dd10f
DTITLE=Gerhard Gschoßmann - Acoustics
DYEAR=2003
DGENRE=Blues
TTITLE0=D-Guitar Riffs
TTITLE1=End of Summer Blues
TTITLE2=Alabama interstate
TTITLE3=War lies
TTITLE4=What the future brings
TTITLE5=From Blues to Ragtime
TTITLE6=Für Martina and Tatjana
TTITLE7=Adagio D-Moll
TTITLE8=Walking Blues
TTITLE9=From nightfall to daybreak
TTITLE10=Two guitar rendevous
TTITLE11=Open e
TTITLE12=Reminiscene of a holiday
TTITLE13=Spanish Bossa
TTITLE14=Remember
EXTD=YEAR: 2003
EXTT0=
EXTT1=
EXTT2=
EXTT3=
EXTT4=
EXTT5=
EXTT6=
EXTT7=
EXTT8=
EXTT9=
EXTT10=
EXTT11=
EXTT12=
EXTT13=
EXTT14=
PLAYORDER=
